<?xml version="1.0" encoding="utf-8"?>
<!-- Generator: Adobe Illustrator 25.4.1, SVG Export Plug-In . SVG Version: 6.00 Build 0)  -->
<svg version="1.1"
	 id="svg16" inkscape:version="1.1 (c68e22c387, 2021-05-23)" sodipodi:docname="OnlyFans_text.svg" xmlns:cc="http://creativecommons.org/ns#" xmlns:dc="http://purl.org/dc/elements/1.1/" xmlns:inkscape="http://www.inkscape.org/namespaces/inkscape" xmlns:rdf="http://www.w3.org/1999/02/22-rdf-syntax-ns#" xmlns:sodipodi="http://sodipodi.sourceforge.net/DTD/sodipodi-0.dtd" xmlns:svg="http://www.w3.org/2000/svg"
	 xmlns="http://www.w3.org/2000/svg" xmlns:xlink="http://www.w3.org/1999/xlink" x="0px" y="0px" viewBox="0 0 19.8 13.2"
	 style="enable-background:new 0 0 19.8 13.2;" xml:space="preserve">
<style type="text/css">
	.st0{fill:#00AEEF;}
	.st1{fill:#008CCF;}
</style>
<sodipodi:namedview  bordercolor="#666666" borderopacity="1" gridtolerance="10" guidetolerance="10" height="25px" id="namedview18" inkscape:current-layer="g851" inkscape:cx="64.390911" inkscape:cy="2.7400388" inkscape:pagecheckerboard="1" inkscape:pageopacity="0" inkscape:pageshadow="2" inkscape:showpageshadow="false" inkscape:window-height="878" inkscape:window-maximized="1" inkscape:window-width="1600" inkscape:window-x="-8" inkscape:window-y="-8" inkscape:zoom="11.313708" objecttolerance="10" pagecolor="#ffffff" showgrid="false">
	</sodipodi:namedview>
<g id="g851" transform="matrix(0.19488325,0,0,0.19488325,11.238751,-50.963878)">
	<g id="g8237" transform="matrix(0.0661616,0,0,0.0661616,111.09518,270.70812)">
		<g id="_x23_00aeefff" transform="matrix(6.8417029,0,0,6.8417029,-2693.5107,-658.73845)">
			<path id="path11" class="st0" d="M95.8,76c-2.5,0-5.1,0.1-7.6,0.4c-28.7,2.9-54.9,23.5-63.5,51.1c-6.6,19.7-4.5,42.2,5.9,60.3
				c9.1,16.6,25.2,29.1,43.2,34.8c7.2,2.3,14.7,3,22.2,3.4c5.8-19.2,12-38.3,18-57.4c0.7-2.3,1.1-4.6,1.7-6.9
				c-4.9,9.2-16.5,13.9-26.5,10.6c-12.4-3.3-19.4-18.7-13.9-30.2c2.9-7.4,10.3-12.5,18-13.4c7.1-0.9,14.3,2,19.2,7.1
				c4.2,4.8,6.3,11.3,5.8,17.6c7.2-20.4,13-41.9,26.4-59.3C131.2,82.6,113.6,76,95.8,76z"/>
		</g>
		<g id="_x23_008ccfff" transform="matrix(6.8417029,0,0,6.8417029,-2693.5107,-658.73845)">
			<path id="path22" class="st1" d="M202.3,76c-12,0.1-24.3,0.5-35.9,3.8c-8.5,2.5-16.2,7.6-21.7,14.5
				c-13.4,17.3-19.3,38.9-26.4,59.3c-0.7,2.8-1.6,5.6-2.7,8.3c-0.6,2.3-1,4.6-1.7,6.9c-6,19.1-12.2,38.2-18,57.4
				c12-0.2,24.1-2.9,34.8-8.6c14.3-7.4,26.1-19.6,32.9-34.3c0.6-0.9,0.8-2.5,2.2-2.4c15.3-1.3,30.7-7.6,41-19.2
				c7.6-8,12.3-18.5,14.9-29.2c-13.6,2.7-28,3.7-41.6,0c15.1-3.1,30-8.7,42-18.5c11.9-9.4,20.2-23,23.6-37.8
				C231.3,76,216.8,76,202.3,76z"/>
		</g>
	</g>
</g>
</svg>
